<svg id="Capa_1" enable-background="new 0 0 512 512" height="512" viewBox="0 0 512 512" width="512" xmlns="http://www.w3.org/2000/svg"><g><path d="m165 258.75v196.592l24.87 8.29c3.93 1.31 6.053 5.557 4.744 9.487-1.31 3.93-5.559 6.054-9.487 4.744l-29.998-10c-3.063-1.021-5.128-3.887-5.128-7.115v-201.998z" fill="#353535"/><path d="m7.5 136.25c4.143 0 7.5 3.358 7.5 7.5 0 37.22 30.28 67.5 67.5 67.5h45v15h-45c-45.49 0-82.5-37.009-82.5-82.5 0-4.142 3.357-7.5 7.5-7.5z" fill="#ff6753"/><path d="m347 258.75v196.592l-24.87 8.29c-3.93 1.31-6.053 5.557-4.744 9.487 1.31 3.93 5.559 6.054 9.487 4.744l29.998-10c3.063-1.021 5.128-3.887 5.128-7.115v-201.998z" fill="#ffcb63"/><path d="m504.5 136.25c-4.143 0-7.5 3.358-7.5 7.5 0 37.22-30.28 67.5-67.5 67.5h-45v15h45c45.49 0 82.5-37.009 82.5-82.5 0-4.142-3.358-7.5-7.5-7.5z" fill="#ff4128"/><path d="m90 288.75v90c0 2.204-.917 3.79-1.687 4.733l-41.625 51.026c-1.091 1.339-1.688 3.013-1.688 4.741v31.5c0 4.142 3.357 7.5 7.5 7.5s7.5-3.358 7.5-7.5v-28.829l39.936-48.955c3.266-4.002 5.064-9.051 5.064-14.216v-90z" fill="#4f4f4f"/><path d="m465.311 434.509-41.626-51.027c-.769-.942-1.686-2.528-1.686-4.732v-90h-15v90c0 5.166 1.799 10.214 5.063 14.215l39.938 48.956v28.829c0 4.142 3.357 7.5 7.5 7.5s7.5-3.358 7.5-7.5v-31.5c0-1.728-.597-3.402-1.689-4.741z" fill="#ffa754"/><path d="m256 380.75v90c24.853 0 45-20.147 45-45s-20.147-45-45-45z" fill="#ffe2a8"/><path d="m271 425.75c0-24.853-6.716-45-15-45-24.853 0-45 20.147-45 45s20.147 45 45 45c8.284 0 15-20.147 15-45z" fill="#fff0d3"/><path d="m429.5 273.75v-55c0-11.046-8.954-20-20-20h-30v115l35 20h30v-20.335c0-15.211-5.671-29.09-15-39.665z" fill="#ff4128"/><path d="m399.5 273.75v-55c0-11.046-8.954-20-20-20h-20c-11.046 0-20 8.954-20 20v55c-9.329 10.576-15 24.454-15 39.665v20.335h90v-20.335c0-15.211-5.671-29.09-15-39.665z" fill="#ff6753"/><circle cx="369.5" cy="228.75" fill="#ffa754" r="7.5"/><circle cx="369.5" cy="258.75" fill="#ffa754" r="7.5"/><circle cx="346.294" cy="71.164" fill="#4f4f4f" r="20"/><circle cx="422.706" cy="71.164" fill="#353535" r="20"/><path d="m384.499 88.75v80c24.853 0 45-20.147 45-45 0-5.261-.912-10.307-2.571-15z" fill="#ffa754"/><path d="m384.499 78.75 14.143 30h28.286c-6.179-17.476-22.838-30-42.429-30z" fill="#353535"/><path d="m342.069 108.75c-1.659 4.693-2.571 9.739-2.571 15 0 24.853 20.147 45 45 45 8.284 0 15-20.147 15-45 0-5.261-.304-10.307-.857-15l-14.143-20z" fill="#ffcb63"/><path d="m384.499 78.75c-19.592 0-36.25 12.524-42.429 30h56.572c-2.06-17.476-7.613-30-14.143-30z" fill="#4f4f4f"/><path d="m127.5 243.75v90c24.853 0 45-20.147 45-45z" fill="#353535"/><path d="m142.5 289.25-15-45-45 45c0 24.853 20.147 45 45 45 8.284 0 15-20.148 15-45z" fill="#4f4f4f"/><path d="m152.5 198.75h-30l20 90h30v-70c0-11.046-8.954-20-20-20z" fill="#ff4128"/><path d="m122.5 198.75h-20c-11.046 0-20 8.954-20 20v70h60v-70c0-11.046-8.954-20-20-20z" fill="#ff6753"/><circle cx="142.5" cy="228.75" fill="#ffa754" r="7.5"/><circle cx="142.5" cy="258.75" fill="#ffa754" r="7.5"/><path d="m159.1 59.888c-6.499-12.495-17.869-22.051-31.6-26.138-13.731 4.087-25.101 13.643-31.6 26.138-7.798 2.729-13.4 10.133-13.4 18.862v45h90v-45c0-8.729-5.602-16.132-13.4-18.862z" fill="#353535"/><path d="m127.5 78.75v90c24.853 0 45-20.147 45-45s-20.147-45-45-45z" fill="#ffa754"/><path d="m142.5 123.75c0-24.853-6.716-45-15-45-24.853 0-45 20.147-45 45s20.147 45 45 45c8.284 0 15-20.147 15-45z" fill="#ffcb63"/></g></svg>