<?xml version="1.0" encoding="iso-8859-1"?>
<!-- Generator: Adobe Illustrator 19.0.0, SVG Export Plug-In . SVG Version: 6.00 Build 0)  -->
<svg version="1.1" id="Capa_1" xmlns="http://www.w3.org/2000/svg" xmlns:xlink="http://www.w3.org/1999/xlink" x="0px" y="0px"
	 viewBox="0 0 480 480" style="enable-background:new 0 0 480 480;" xml:space="preserve">
<path style="fill:#F4F2ED;" d="M316,296c-11.048,0-20,8.952-20,20c0-11.048-8.952-20-20-20s-20,8.952-20,20c0-11.048-8.952-20-20-20
	s-20,8.952-20,20v-96c0-11.048-8.952-20-20-20s-20,8.952-20,20v92l-32,32v40l32,32v56h160V316C336,304.952,327.048,296,316,296z"/>
<circle style="fill:#EF5E65;" cx="76" cy="76" r="68"/>
<polygon style="fill:#36C2CC;" points="304,144 232,8 160,144 232,144 "/>
<rect x="336" y="8" style="fill:#EFD06F;" width="136" height="136"/>
<g>
	<path style="fill:#0F2323;" d="M76,0C34.096,0,0,34.096,0,76s34.096,76,76,76s76-34.096,76-76S117.904,0,76,0z M76,136
		c-33.088,0-60-26.912-60-60s26.912-60,60-60s60,26.912,60,60S109.088,136,76,136z"/>
	<path style="fill:#0F2323;" d="M153.144,148.128c1.448,2.4,4.048,3.872,6.856,3.872h144c2.808,0,5.408-1.472,6.856-3.872
		s1.528-5.392,0.216-7.864l-72-136c-2.776-5.232-11.368-5.232-14.144,0l-72,136C151.616,142.736,151.696,145.728,153.144,148.128z
		 M232,25.104L290.712,136H173.288L232,25.104z"/>
	<path style="fill:#0F2323;" d="M472,0H336c-4.416,0-8,3.576-8,8v136c0,4.424,3.584,8,8,8h136c4.416,0,8-3.576,8-8V8
		C480,3.576,476.416,0,472,0z M464,136H344V16h120V136z"/>
	<path style="fill:#0F2323;" d="M316,288c-7.84,0-14.912,3.256-20,8.464c-5.088-5.208-12.16-8.464-20-8.464s-14.912,3.256-20,8.464
		c-5.088-5.208-12.16-8.464-20-8.464c-4.312,0-8.352,1.064-12,2.808V220c0-15.44-12.56-28-28-28s-28,12.56-28,28v88.688
		l-29.656,29.656C136.84,339.84,136,341.872,136,344v40c0,2.128,0.84,4.16,2.344,5.656L168,419.312V472c0,4.424,3.584,8,8,8h160
		c4.416,0,8-3.576,8-8V316C344,300.56,331.44,288,316,288z M328,464H184v-48c0-2.128-0.84-4.16-2.344-5.656L152,380.688v-33.376
		l16-16V344h16V220c0-6.616,5.384-12,12-12s12,5.384,12,12v96v12h16v-12c0-6.616,5.384-12,12-12s12,5.384,12,12v12h16v-12
		c0-6.616,5.384-12,12-12s12,5.384,12,12v12h16v-12c0-6.616,5.384-12,12-12s12,5.384,12,12V464z"/>
</g>
<g>
</g>
<g>
</g>
<g>
</g>
<g>
</g>
<g>
</g>
<g>
</g>
<g>
</g>
<g>
</g>
<g>
</g>
<g>
</g>
<g>
</g>
<g>
</g>
<g>
</g>
<g>
</g>
<g>
</g>
</svg>
