<svg id="Capa_1" enable-background="new 0 0 512 512" height="512" viewBox="0 0 512 512" width="512" xmlns="http://www.w3.org/2000/svg"><g><g><g><path d="m389.737 30.484c-34.911 0-66.393 15.617-88.666 40.658-2.03 2.283-5.637 2.283-7.667 0-22.272-25.04-53.755-40.658-88.666-40.658-67.527 0-122.277 58.42-122.277 130.493 0 62.985 57.552 169.988 185.012 235.502 8.259 4.245 16.813 8.316 25.662 12.185 2.609 1.141 5.593 1.141 8.203 0 8.849-3.869 17.403-7.94 25.662-12.185 127.448-65.514 185-172.517 185-235.502 0-72.072-54.736-130.493-122.263-130.493z" fill="#fc5a95"/><path d="m512 160.973c0 62.994-57.549 169.988-184.996 235.507-8.265 4.245-16.818 8.318-25.672 12.187-2.606 1.139-5.587 1.138-8.193-.001-8.848-3.868-17.407-7.941-25.662-12.186-.435-.217-.859-.445-1.283-.673 126.547-65.571 183.703-172.058 183.703-234.835 0-60.613-38.711-111.569-91.199-126.236 9.906-2.774 20.308-4.254 31.041-4.254 67.527.001 122.261 58.419 122.261 130.491z" fill="#fb3a82"/></g><g><path d="m220.161 210.203c-24.479 0-46.605 10.717-62.497 27.99-2.035 2.212-5.522 2.212-7.557 0-15.891-17.274-38.017-27.99-62.496-27.99-48.383 0-87.611 41.857-87.611 93.497 0 45.128 41.235 121.795 132.56 168.735 5.553 2.854 11.292 5.599 17.218 8.217 2.612 1.154 5.604 1.154 8.216 0 5.925-2.618 11.665-5.363 17.218-8.217 91.315-46.94 132.55-123.607 132.55-168.735-.001-51.64-39.219-93.497-87.601-93.497z" fill="#fca5cd"/><path d="m307.763 303.695c0 45.129-41.237 121.796-132.55 168.735-5.556 2.854-11.298 5.599-17.224 8.217-2.612 1.154-5.604 1.153-8.216-.002-5.919-2.618-11.659-5.362-17.215-8.215-1.708-.88-3.395-1.76-5.061-2.67 87.773-47.126 127.478-121.785 127.478-166.065 0-41.827-25.721-77.226-61.214-89.17 8.332-2.815 17.192-4.326 26.394-4.326 48.39-.001 87.608 41.856 87.608 93.496z" fill="#fc7cb6"/></g></g><g><g><g><path d="m104.947 364.919c-4.267 0-7.726-3.459-7.726-7.726v-11.333c0-4.267 3.459-7.726 7.726-7.726s7.726 3.459 7.726 7.726v11.332c.001 4.267-3.459 7.727-7.726 7.727z" fill="#fc5a95"/></g><g><path d="m202.814 364.919c-4.267 0-7.726-3.459-7.726-7.726v-11.333c0-4.267 3.459-7.726 7.726-7.726s7.726 3.459 7.726 7.726v11.332c.001 4.267-3.459 7.727-7.726 7.727z" fill="#fc5a95"/></g></g><g><path d="m153.881 404.015c-14.582 0-27.146-10.387-29.873-24.699-.799-4.192 1.951-8.237 6.143-9.036 4.195-.802 8.237 1.951 9.036 6.143 1.341 7.034 7.521 12.139 14.694 12.139s13.353-5.105 14.693-12.139c.799-4.192 4.85-6.94 9.036-6.144 4.192.799 6.942 4.845 6.144 9.036-2.727 14.312-15.291 24.7-29.873 24.7z" fill="#fc5a95"/></g></g></g></svg>