<?xml version="1.0" encoding="UTF-8"?>
<svg version="1.1" viewBox="0 0 99 20" width="99px" height="20px" xmlns="http://www.w3.org/2000/svg">
    <g id="svgGroup" fill="#F27212" stroke-linecap="round" fill-rule="evenodd" font-size="9pt"  
             >
  <path d="M 57.98 13.234 L 57.98 17.81 A 15.095 15.095 0 0 1 57.978 18.09 Q 57.97 18.483 57.941 18.707 A 1.646 1.646 0 0 1 57.88 18.981 Q 57.838 19.114 57.774 19.257 A 3.12 3.12 0 0 1 57.72 19.37 A 1.003 1.003 0 0 1 57.284 19.787 Q 56.897 19.994 56.232 20.051 A 6.396 6.396 0 0 1 55.692 20.072 A 5.377 5.377 0 0 1 54.983 20.029 Q 54.229 19.928 53.861 19.59 A 1.044 1.044 0 0 1 53.56 19.11 A 2.092 2.092 0 0 1 53.481 18.809 Q 53.404 18.406 53.404 17.784 L 53.404 13.208 A 2.996 2.996 0 0 0 53.332 12.53 Q 53.209 12.001 52.878 11.632 A 1.896 1.896 0 0 0 52.793 11.544 A 2.047 2.047 0 0 0 51.735 11 A 2.964 2.964 0 0 0 51.155 10.946 A 2.749 2.749 0 0 0 50.399 11.045 A 2.098 2.098 0 0 0 49.491 11.57 A 2.092 2.092 0 0 0 48.877 12.838 A 2.907 2.907 0 0 0 48.854 13.208 L 48.854 17.81 A 15.095 15.095 0 0 1 48.852 18.09 Q 48.844 18.483 48.815 18.707 A 1.392 1.392 0 0 1 48.75 18.976 Q 48.687 19.162 48.568 19.37 A 0.95 0.95 0 0 1 48.147 19.787 Q 47.626 20.072 46.566 20.072 Q 44.928 20.072 44.564 19.37 A 3.364 3.364 0 0 1 44.448 19.092 Q 44.367 18.869 44.343 18.681 Q 44.313 18.449 44.306 18.038 A 15.407 15.407 0 0 1 44.304 17.784 L 44.304 8.58 A 13.939 13.939 0 0 1 44.306 8.311 Q 44.314 7.933 44.343 7.709 A 1.392 1.392 0 0 1 44.408 7.44 Q 44.471 7.254 44.59 7.046 A 0.956 0.956 0 0 1 44.991 6.676 Q 45.362 6.479 46.006 6.42 A 6.539 6.539 0 0 1 46.592 6.396 A 6.486 6.486 0 0 1 47.222 6.424 Q 47.837 6.485 48.187 6.674 A 0.908 0.908 0 0 1 48.542 6.994 Q 48.802 7.436 48.802 8.06 A 0.924 0.924 0 0 1 48.87 7.959 Q 48.994 7.797 49.258 7.551 A 7.743 7.743 0 0 1 49.27 7.54 A 5.452 5.452 0 0 1 49.606 7.252 Q 49.769 7.123 49.927 7.022 A 3.32 3.32 0 0 1 49.972 6.994 Q 50.856 6.396 51.922 6.396 A 5.461 5.461 0 0 1 56.004 8.115 A 6.827 6.827 0 0 1 56.251 8.385 Q 57.98 10.374 57.98 13.234 Z M 73.528 2.288 L 73.528 17.81 A 15.095 15.095 0 0 1 73.526 18.09 Q 73.518 18.483 73.489 18.707 A 1.392 1.392 0 0 1 73.424 18.976 Q 73.361 19.162 73.242 19.37 A 1.013 1.013 0 0 1 72.82 19.762 Q 72.245 20.072 71.045 20.072 A 3.828 3.828 0 0 1 70.337 20.012 Q 69.193 19.796 69.03 18.798 A 3.57 3.57 0 0 1 66.882 19.973 A 5.229 5.229 0 0 1 65.988 20.046 A 5.291 5.291 0 0 1 62.847 18.997 A 7.77 7.77 0 0 1 61.724 18.005 Q 59.8 15.964 59.8 13.247 Q 59.8 10.53 61.737 8.476 A 7.611 7.611 0 0 1 63.146 7.286 A 5.166 5.166 0 0 1 65.988 6.422 A 4.566 4.566 0 0 1 67.26 6.59 A 3.391 3.391 0 0 1 68.978 7.722 L 68.978 2.262 A 15.095 15.095 0 0 1 68.98 1.982 Q 68.988 1.589 69.017 1.365 A 1.542 1.542 0 0 1 69.074 1.109 Q 69.112 0.987 69.172 0.853 A 3.136 3.136 0 0 1 69.251 0.689 Q 69.446 0.312 69.94 0.156 Q 70.272 0.051 70.751 0.017 A 7.033 7.033 0 0 1 71.253 0 Q 71.786 0 72.181 0.066 A 2.83 2.83 0 0 1 72.566 0.156 A 1.385 1.385 0 0 1 72.888 0.302 A 0.989 0.989 0 0 1 73.255 0.702 Q 73.45 1.092 73.489 1.391 Q 73.519 1.623 73.526 2.035 A 15.407 15.407 0 0 1 73.528 2.288 Z M 40.066 14.742 L 33.904 14.742 Q 33.904 15.47 34.762 15.964 A 3.872 3.872 0 0 0 35.607 16.331 A 3.092 3.092 0 0 0 36.478 16.458 Q 37.986 16.458 38.844 16.146 L 39.13 16.042 A 4.391 4.391 0 0 1 39.495 15.893 Q 39.882 15.756 40.17 15.756 Q 40.816 15.756 41.322 16.462 A 3.661 3.661 0 0 1 41.6 16.926 Q 41.818 17.379 41.896 17.746 A 1.828 1.828 0 0 1 41.938 18.122 A 1.711 1.711 0 0 1 40.971 19.652 Q 39.68 20.403 36.669 20.435 A 25.542 25.542 0 0 1 36.4 20.436 A 9.535 9.535 0 0 1 34.583 20.27 A 7.425 7.425 0 0 1 32.981 19.773 A 6.816 6.816 0 0 1 31.744 19.071 A 5.161 5.161 0 0 1 30.654 18.018 Q 29.016 15.912 29.016 13.312 A 8.192 8.192 0 0 1 29.339 10.953 A 6.337 6.337 0 0 1 31.135 8.073 A 7.308 7.308 0 0 1 35.649 6.141 A 9.652 9.652 0 0 1 36.426 6.11 A 8.051 8.051 0 0 1 38.544 6.371 A 5.399 5.399 0 0 1 41.73 8.658 Q 42.614 10.01 42.614 11.609 A 5.117 5.117 0 0 1 42.544 12.485 Q 42.379 13.436 41.821 13.975 A 2.964 2.964 0 0 1 41.152 14.47 A 2.285 2.285 0 0 1 40.066 14.742 Z M 14.586 10.998 L 12.896 10.894 L 12.896 14.482 Q 12.896 15.078 13.055 15.393 A 0.813 0.813 0 0 0 13.117 15.496 A 0.645 0.645 0 0 0 13.397 15.715 Q 13.512 15.764 13.66 15.787 A 1.864 1.864 0 0 0 13.949 15.808 A 15.963 15.963 0 0 1 14.237 15.811 Q 14.641 15.818 14.885 15.847 A 1.534 1.534 0 0 1 15.22 15.928 Q 15.368 15.981 15.523 16.066 A 2.679 2.679 0 0 1 15.574 16.094 A 0.918 0.918 0 0 1 15.932 16.485 Q 16.113 16.832 16.157 17.422 A 5.491 5.491 0 0 1 16.172 17.836 A 5.663 5.663 0 0 1 16.137 18.492 Q 16.013 19.554 15.444 19.838 A 3.364 3.364 0 0 1 15.166 19.954 Q 14.942 20.035 14.755 20.059 A 3.484 3.484 0 0 1 14.565 20.078 Q 14.358 20.093 14.069 20.097 A 14.829 14.829 0 0 1 13.884 20.098 A 9.566 9.566 0 0 1 12.33 19.98 Q 10.744 19.719 9.776 18.876 Q 8.372 17.654 8.372 14.742 L 8.372 10.894 A 6.346 6.346 0 0 1 7.724 10.961 A 7.77 7.77 0 0 1 7.306 10.972 A 1.186 1.186 0 0 1 6.417 10.596 A 1.488 1.488 0 0 1 6.357 10.53 Q 6.019 10.134 5.984 9.237 A 5.498 5.498 0 0 1 5.98 9.022 Q 5.98 7.956 6.11 7.475 A 2.32 2.32 0 0 1 6.199 7.207 Q 6.311 6.931 6.474 6.786 A 1.492 1.492 0 0 1 7.193 6.473 A 2.027 2.027 0 0 1 7.514 6.448 L 8.372 6.552 L 8.372 3.874 A 14.963 14.963 0 0 1 8.374 3.595 Q 8.382 3.205 8.411 2.99 Q 8.443 2.754 8.59 2.483 A 2.471 2.471 0 0 1 8.658 2.366 Q 8.924 1.854 10.012 1.745 A 6.543 6.543 0 0 1 10.66 1.716 A 4.949 4.949 0 0 1 11.365 1.762 Q 12.168 1.878 12.536 2.288 A 1.147 1.147 0 0 1 12.766 2.678 Q 12.896 3.094 12.896 4.004 L 12.896 6.552 Q 13.772 6.472 14.32 6.454 A 9.031 9.031 0 0 1 14.625 6.448 A 14.511 14.511 0 0 1 14.9 6.451 Q 15.191 6.456 15.39 6.474 A 3.064 3.064 0 0 1 15.509 6.487 A 1.46 1.46 0 0 1 15.756 6.543 Q 15.878 6.581 16.01 6.641 A 3.208 3.208 0 0 1 16.198 6.734 Q 16.874 7.072 16.874 8.736 Q 16.874 10.374 16.172 10.738 A 3.364 3.364 0 0 1 15.894 10.854 Q 15.67 10.935 15.483 10.959 Q 15.251 10.989 14.84 10.996 A 15.407 15.407 0 0 1 14.586 10.998 Z M 22.88 12.376 L 22.88 17.836 A 15.095 15.095 0 0 1 22.878 18.116 Q 22.87 18.509 22.841 18.733 A 1.46 1.46 0 0 1 22.785 18.981 Q 22.747 19.102 22.687 19.235 A 3.208 3.208 0 0 1 22.594 19.422 A 1.039 1.039 0 0 1 22.159 19.817 Q 21.769 20.021 21.105 20.077 A 6.454 6.454 0 0 1 20.566 20.098 A 5.6 5.6 0 0 1 19.953 20.067 Q 19.173 19.981 18.772 19.656 A 1.249 1.249 0 0 1 18.433 19.159 Q 18.358 18.967 18.324 18.73 A 2.664 2.664 0 0 1 18.304 18.538 L 18.304 17.784 L 18.304 8.658 A 15.095 15.095 0 0 1 18.306 8.378 Q 18.314 7.985 18.343 7.761 A 1.646 1.646 0 0 1 18.404 7.487 Q 18.446 7.355 18.51 7.212 A 3.12 3.12 0 0 1 18.564 7.098 A 1.003 1.003 0 0 1 19 6.681 Q 19.387 6.474 20.052 6.417 A 6.396 6.396 0 0 1 20.592 6.396 Q 21.689 6.396 22.208 6.692 A 0.951 0.951 0 0 1 22.542 6.994 A 1.707 1.707 0 0 1 22.747 7.39 A 1.373 1.373 0 0 1 22.828 7.852 A 2.611 2.611 0 0 1 22.921 7.731 Q 23.032 7.593 23.194 7.421 A 8.233 8.233 0 0 1 23.205 7.41 A 1.518 1.518 0 0 1 23.363 7.269 Q 23.654 7.04 24.258 6.708 A 4.671 4.671 0 0 1 24.766 6.466 Q 25.029 6.36 25.267 6.311 A 1.998 1.998 0 0 1 25.675 6.266 Q 26.131 6.266 26.478 6.302 A 4.417 4.417 0 0 1 26.702 6.331 Q 27.118 6.396 27.612 6.552 Q 28.106 6.708 28.431 7.085 A 1.123 1.123 0 0 1 28.629 7.432 Q 28.756 7.774 28.756 8.294 A 3.284 3.284 0 0 1 28.647 9.108 Q 28.524 9.589 28.262 10.114 A 2.252 2.252 0 0 1 27.939 10.603 A 1.417 1.417 0 0 1 26.832 11.102 Q 26.364 11.102 25.935 10.894 A 1.838 1.838 0 0 0 25.546 10.76 Q 25.224 10.686 24.804 10.686 A 1.974 1.974 0 0 0 23.723 11.012 A 2.577 2.577 0 0 0 23.491 11.18 A 1.81 1.81 0 0 0 23.119 11.58 A 1.403 1.403 0 0 0 22.88 12.376 Z M 0 17.81 L 0 8.684 A 15.095 15.095 0 0 1 0.002 8.404 Q 0.01 8.011 0.039 7.787 A 1.743 1.743 0 0 1 0.094 7.532 Q 0.13 7.406 0.186 7.268 A 3.631 3.631 0 0 1 0.26 7.098 A 0.975 0.975 0 0 1 0.675 6.707 Q 1.207 6.422 2.288 6.422 Q 3.536 6.422 4.056 6.864 Q 4.498 7.228 4.524 7.982 Q 4.55 8.242 4.55 8.736 L 4.55 17.836 A 15.095 15.095 0 0 1 4.548 18.116 Q 4.54 18.509 4.511 18.733 A 1.46 1.46 0 0 1 4.455 18.981 Q 4.417 19.102 4.357 19.235 A 3.208 3.208 0 0 1 4.264 19.422 Q 3.926 20.098 2.262 20.098 Q 0.624 20.098 0.26 19.396 Q 0.131 19.12 0.074 18.896 A 1.572 1.572 0 0 1 0.039 18.72 A 2.943 2.943 0 0 1 0.022 18.556 Q 0.007 18.369 0.002 18.097 A 16.216 16.216 0 0 1 0 17.81 Z M 4.277 3.861 Q 4.082 4.238 3.588 4.394 Q 3.256 4.499 2.777 4.533 A 7.033 7.033 0 0 1 2.275 4.55 Q 1.742 4.55 1.347 4.484 A 2.83 2.83 0 0 1 0.962 4.394 A 1.385 1.385 0 0 1 0.64 4.248 A 0.989 0.989 0 0 1 0.273 3.848 Q 0.078 3.458 0.039 3.159 Q 0.009 2.927 0.002 2.516 A 15.407 15.407 0 0 1 0 2.262 A 15.095 15.095 0 0 1 0.002 1.982 Q 0.01 1.589 0.039 1.365 A 1.646 1.646 0 0 1 0.1 1.091 Q 0.142 0.959 0.206 0.816 A 3.12 3.12 0 0 1 0.26 0.702 A 1.003 1.003 0 0 1 0.696 0.285 Q 1.083 0.078 1.748 0.021 A 6.396 6.396 0 0 1 2.288 0 A 5.866 5.866 0 0 1 2.932 0.032 Q 3.576 0.104 3.928 0.333 A 0.913 0.913 0 0 1 4.264 0.702 A 3.04 3.04 0 0 1 4.387 0.959 Q 4.442 1.092 4.475 1.212 A 1.375 1.375 0 0 1 4.511 1.391 Q 4.541 1.623 4.548 2.035 A 15.407 15.407 0 0 1 4.55 2.288 A 15.095 15.095 0 0 1 4.548 2.568 Q 4.54 2.961 4.511 3.185 A 1.542 1.542 0 0 1 4.454 3.441 Q 4.416 3.564 4.356 3.697 A 3.136 3.136 0 0 1 4.277 3.861 Z M 65.026 14.82 A 2.249 2.249 0 0 0 65.897 15.395 A 2.273 2.273 0 0 0 66.664 15.522 A 2.155 2.155 0 0 0 67.582 15.33 A 2.125 2.125 0 0 0 68.263 14.82 A 2.599 2.599 0 0 0 68.698 14.18 A 2.108 2.108 0 0 0 68.9 13.273 Q 68.9 12.428 68.289 11.7 A 1.999 1.999 0 0 0 66.845 10.98 A 2.795 2.795 0 0 0 66.638 10.972 Q 65.598 10.972 64.974 11.687 A 2.637 2.637 0 0 0 64.531 12.377 A 2.21 2.21 0 0 0 64.35 13.26 A 2.102 2.102 0 0 0 64.788 14.54 A 2.88 2.88 0 0 0 65.026 14.82 Z M 33.852 12.376 L 37.128 12.376 A 1.71 1.71 0 0 0 37.498 12.34 Q 38.022 12.223 38.102 11.732 A 1.174 1.174 0 0 0 38.116 11.544 Q 38.116 10.946 37.661 10.582 A 1.501 1.501 0 0 0 37.169 10.327 Q 36.823 10.218 36.361 10.218 Q 35.561 10.218 34.772 10.836 A 4.197 4.197 0 0 0 34.684 10.907 A 3.064 3.064 0 0 0 34.263 11.324 Q 34.051 11.584 33.949 11.855 A 1.461 1.461 0 0 0 33.852 12.376 Z" vector-effect="non-scaling-stroke"/>
   
          </g>
        
</svg>
